<svg width="58" height="86" viewBox="0 0 58 86" fill="none" xmlns="http://www.w3.org/2000/svg">
<path d="M57.1435 32.4714C56.5217 31.0542 54.8244 31.2407 53.5498 31.3153C51.9271 31.4023 50.3106 31.5701 48.7065 31.8125C45.517 32.2849 42.3649 33.0557 39.3059 34.0937C37.5589 34.6842 35.8367 35.3742 34.1767 36.1636C32.8959 36.7728 31.6338 37.4254 30.4649 38.2272C30.4649 37.8357 30.4774 37.4441 30.5147 37.0462C30.5395 36.7541 30.4152 36.5428 30.2286 36.406C33.3062 35.4674 36.0729 33.9881 38.3609 32.0922C42.4395 28.7171 45.0072 23.9993 45.001 18.7718C45.001 13.5443 42.4395 8.82646 38.3609 5.45127C34.2824 2.06987 28.6743 0 22.5005 0C16.3267 0 10.7187 2.06987 6.64011 5.45127C2.56155 8.82646 -0.00620606 13.5443 1.12652e-05 18.7718C1.12652e-05 23.9993 2.56155 28.7171 6.64011 32.0922C8.94674 34.0005 11.7383 35.4923 14.8408 36.4247C12.5777 38.134 10.6627 40.266 8.90322 42.4975C8.46179 43.0569 8.02658 43.6226 7.6038 44.2069C7.23698 44.7166 6.85772 45.3257 6.90746 45.9846C7.00694 47.3148 8.40583 47.5012 9.40061 47.0351C9.72391 46.8859 10.0223 46.6808 10.3146 46.4756C10.3705 46.6621 10.4949 46.8299 10.7125 46.9356C10.8244 46.9916 10.9425 47.0413 11.0544 47.0972C10.0659 49.0987 9.36952 51.2307 8.82861 53.4C8.26905 55.6315 7.71571 58.0743 7.9271 60.3866C8.2504 63.9669 11.1415 65.3468 14.2066 66.0554C14.1879 66.3973 14.1631 66.7392 14.1444 67.0873C14.076 68.4858 14.0325 69.8906 14.0076 71.2892C13.9641 73.7755 13.989 76.268 14.045 78.7544C12.3787 78.7854 10.7436 79.0465 9.13948 79.5313C8.44936 79.7427 7.67841 80.0286 7.34889 80.731C7.04424 81.3836 7.24941 82.0922 7.75923 82.5771C8.84105 83.5965 10.5943 83.4535 11.9186 83.0743C13.4667 82.633 14.8905 81.6571 15.7796 80.3021C16.078 79.8421 15.7609 79.3511 15.363 79.2454C15.2325 76.5229 15.1765 73.7879 15.1827 71.0592C15.1827 69.7352 15.1951 68.4112 15.2138 67.0935C15.22 66.82 15.22 66.5465 15.2262 66.273C15.9723 66.416 16.7122 66.5216 17.4147 66.6273C20.8654 67.1308 24.5522 67.2178 27.8039 65.9684C27.7417 66.3414 27.7231 66.7268 27.6858 67.0997C27.6298 67.7586 27.5987 68.4175 27.5676 69.0763C27.4992 70.4749 27.4557 71.8797 27.4308 73.2782C27.3873 75.7645 27.4122 78.2571 27.4682 80.7434C25.8019 80.7745 24.1668 81.0356 22.5627 81.5204C21.8726 81.7317 21.1016 82.0177 20.7721 82.72C20.4674 83.3727 20.6726 84.0813 21.1824 84.5661C22.2643 85.5855 24.0175 85.4426 25.3418 85.0634C26.8899 84.6221 28.3137 83.6462 29.2028 82.2912C29.5012 81.8312 29.1841 81.3401 28.7862 81.2345C28.6557 78.5119 28.5997 75.777 28.6059 73.0482C28.6059 71.7243 28.6184 70.4003 28.637 69.0826C28.6494 68.3802 28.6619 67.6778 28.6619 66.9754C28.6619 66.5216 28.6805 66.0679 28.6122 65.6266C29.3209 65.2971 30.011 64.8993 30.6639 64.4145C32.3612 63.1589 33.6358 61.406 34.2077 59.3672C34.8046 57.2476 34.7238 55.0037 34.3134 52.8531C33.4306 48.2409 30.8131 43.8961 30.4836 39.1969C32.8088 38.221 35.0409 37.04 37.3972 36.1325C39.965 35.1442 42.6011 34.3299 45.287 33.7394C45.3803 33.7208 45.4673 33.7021 45.5606 33.6835L45.573 33.7021C47.1584 35.7782 49.6889 36.8971 52.2877 36.81C53.5561 36.7665 54.899 36.4309 55.9559 35.7161C57.0005 35.0075 57.6781 33.7021 57.1435 32.4714ZM12.1922 81.5453C11.3031 81.9182 10.0223 82.2228 9.08974 81.825C8.72914 81.6696 8.3561 81.4023 8.79753 81.1039C9.27004 80.7869 9.96017 80.675 10.5073 80.5445C11.7321 80.2524 12.9942 80.097 14.2563 80.0659C13.6843 80.6937 13.0067 81.2034 12.1922 81.5453ZM25.6216 83.5343C24.7325 83.9073 23.4518 84.2118 22.5192 83.814C22.1586 83.6586 21.7855 83.3914 22.227 83.093C22.6995 82.776 23.3896 82.6641 23.9367 82.5336C25.1615 82.2414 26.4236 82.086 27.6858 82.055C27.1075 82.6828 26.4361 83.1924 25.6216 83.5343ZM1.49217 18.7718C1.49217 14.0477 3.79879 9.75261 7.59758 6.60119C11.3901 3.45599 16.6687 1.4918 22.5067 1.4918C28.3448 1.4918 33.6233 3.45599 37.4159 6.60119C41.2085 9.7464 43.5151 14.0415 43.5213 18.7718C43.5213 23.4958 41.2147 27.7909 37.4159 30.9423C33.6233 34.0875 28.351 36.0517 22.5067 36.0517C16.6687 36.0517 11.3901 34.0875 7.59758 30.9423C3.79879 27.7909 1.49217 23.4958 1.49217 18.7718ZM10.5073 44.8347C9.94773 45.2076 9.38817 45.736 8.754 45.9722C7.58514 46.4135 8.45557 45.0709 8.76022 44.6482C10.4078 42.3856 12.2792 40.3158 14.132 38.2272C13.8584 38.7929 13.5911 39.3585 13.3424 39.9366C12.8015 41.1798 12.3103 42.4478 11.8813 43.7282C11.8502 43.8153 11.8502 43.8899 11.8627 43.9644C11.4088 44.2504 10.9549 44.5363 10.5073 44.8347ZM12.9258 44.7725C14.2004 44.0204 15.5247 43.3491 16.8863 42.7586C18.0427 42.2551 19.8333 41.3165 21.0084 42.2613C22.1213 43.1626 21.226 44.7041 20.3307 45.3381C17.8437 47.091 14.2066 46.7864 11.5331 45.6427C11.987 45.3444 12.4533 45.0522 12.9258 44.7725ZM32.1685 49.9813C33.3995 53.7419 34.1767 58.3665 31.5343 61.723C28.8733 65.0982 24.2538 65.8628 20.2125 65.5768C18.0365 65.4214 15.7858 65.1231 13.6781 64.5699C11.9435 64.1161 10.1405 63.3018 9.46277 61.5179C9.04 60.3991 9.09596 59.1497 9.22652 57.9811C9.36952 56.7131 9.59334 55.4513 9.87312 54.2081C10.3892 51.902 11.1663 49.6706 11.9994 47.464C14.3372 48.2534 16.9298 48.1974 19.2551 47.3645C20.4674 46.9294 21.6736 46.2332 22.3264 45.0833C22.8922 44.0825 22.9544 42.7337 22.258 41.7703C20.4053 39.2093 16.4013 41.5403 14.3558 42.5783C13.9144 42.8021 13.4854 43.0383 13.0502 43.2807C13.3921 42.2986 13.7589 41.3165 14.1569 40.3531C14.4118 39.7501 14.6729 39.1472 14.9465 38.5567C15.077 38.2708 15.2138 37.9848 15.3382 37.6927C15.4065 37.5249 15.4874 37.3633 15.5185 37.183C15.5433 37.04 15.4501 36.8536 15.4812 36.7292V36.6982L15.5495 36.6174C17.7443 37.2079 20.082 37.5373 22.5067 37.5373C24.8071 37.5373 27.0267 37.2514 29.122 36.7106C29.1095 36.7541 29.0971 36.8038 29.0909 36.8598C28.6805 41.4968 30.7633 45.6987 32.1685 49.9813ZM56.0181 33.7394C55.6886 34.8334 54.1343 35.2747 53.1395 35.4177C50.9759 35.7347 48.7003 34.9142 47.202 33.3354C49.2848 32.9562 51.3924 32.6952 53.5063 32.5709C54.383 32.5211 56.4782 32.2103 56.0181 33.7394Z" fill="#242647"/>
<path d="M10.3766 13.2334C10.0284 13.1713 9.68649 13.3391 9.48132 13.6188L9.43779 13.6934C9.35075 13.7804 9.27615 13.8861 9.22641 14.0042C9.10206 14.2715 9.05853 14.6009 9.0461 14.893C9.03988 15.1479 9.05854 15.3965 9.09584 15.6452C9.09584 15.8192 9.09585 15.9932 9.10206 16.1673C9.12072 16.4284 9.19532 16.7019 9.35697 16.9194C9.57457 17.2115 9.96627 17.3732 10.3269 17.2924C10.6999 17.2053 10.9983 16.9567 11.1538 16.6024C11.2533 16.3786 11.2719 16.13 11.2843 15.8876C11.3154 15.7446 11.3341 15.6017 11.3465 15.4587C11.39 14.949 11.3714 14.3274 11.1351 13.8612C10.9797 13.5442 10.7248 13.3018 10.3766 13.2334Z" fill="#242647"/>
<path d="M25.0186 16.1673C25.031 16.4284 25.1118 16.7019 25.2735 16.9194C25.4911 17.2116 25.8828 17.3732 26.2434 17.2924C26.6164 17.2053 26.9149 16.9567 27.0703 16.6024C27.1698 16.3786 27.1884 16.13 27.2008 15.8876C27.2319 15.7446 27.2506 15.6017 27.263 15.4587C27.3065 14.949 27.2879 14.3274 27.0516 13.8612C26.8962 13.5504 26.6475 13.3018 26.2931 13.2397C25.945 13.1775 25.603 13.3453 25.3978 13.625L25.3543 13.6996C25.2673 13.7866 25.1926 13.8923 25.1429 14.0104C25.0186 14.2777 24.975 14.6071 24.9626 14.8993C24.9564 15.1541 24.975 15.4028 25.0124 15.6514C25.0061 15.8192 25.0061 15.9933 25.0186 16.1673Z" fill="#242647"/>
<path d="M21.6422 21.084C21.1573 20.7919 20.4672 20.9162 19.9138 20.9162C19.3729 20.9162 18.832 20.9162 18.2911 20.91C17.1782 20.91 16.0591 20.8789 14.9462 20.9473C14.5483 20.9721 14.5731 21.5875 14.9524 21.631C16.0404 21.7615 17.1409 21.7988 18.2351 21.861C18.7698 21.8921 19.3107 21.9231 19.8454 21.9542C20.1128 21.9666 20.3801 21.9853 20.6537 21.9977C20.9521 22.0164 21.263 22.0723 21.5365 21.9231C21.8287 21.774 21.9842 21.2891 21.6422 21.084Z" fill="#242647"/>
</svg>
